# File created by Blade
# Date/Time:  Mon Nov 15 14:44:42 2010
#---------------------------------------------------------
:version 1.10
:name HOM
:units
  mass 1.0
  length 1.000000
  angle deg
:documentation
     Acclaim Skeleton File
:root
   axis xyz
   order TX TY TZ RX RY RZ
   position 0.000000 0.000000 0.000000
   orientation 0 0 0
:bonedata
   begin
      id 1
      name LeftUpLeg_dum
      direction 1.000000 0.000000 0.000000
      length 4.719518
      axis 0.0 0.0 0.0 xyz
   end
   begin
      id 2
      name RightUpLeg_dum
      direction -1.000000 0.000000 0.000000
      length 4.719518
      axis 0.0 0.0 0.0 xyz
   end
   begin
      id 3
      name Spine_dum
      direction 0.000000 1.000000 0.000000
      length 0.039370
      axis 0.0 0.0 0.0 xyz
   end
   begin
      id 4
      name LeftUpLeg
      direction 0.000000 -1.000000 0.000000
      length 19.141694
      axis 0.0 0.0 0.0 xyz
      dof rx ry rz
   end
   begin
      id 5
      name LeftLeg
      direction 0.000000 -1.000000 0.000000
      length 19.555040
      axis 0.0 0.0 0.0 xyz
      dof rx ry rz
   end
   begin
      id 6
      name LeftFoot
      direction 0.000000 -0.258819 0.965926
      length 6.929396
      axis 15.0 0.0 0.0 xyz
      dof rx ry rz
   end
   begin
      id 7
      name LeftToeBase
      direction 0.000000 0.000000 1.000000
      length 2.952750
      axis 0.0 0.0 0.0 xyz
      dof rx ry rz
   end
   begin
      id 8
      name RightUpLeg
      direction 0.000000 -1.000000 0.000000
      length 19.141694
      axis 0.0 0.0 0.0 xyz
      dof rx ry rz
   end
   begin
      id 9
      name RightLeg
      direction 0.000000 -1.000000 0.000000
      length 19.555040
      axis 0.0 0.0 0.0 xyz
      dof rx ry rz
   end
   begin
      id 10
      name RightFoot
      direction 0.000000 -0.258819 0.965926
      length 6.929396
      axis 15.0 0.0 0.0 xyz
      dof rx ry rz
   end
   begin
      id 11
      name RightToeBase
      direction 0.000000 0.000000 1.000000
      length 2.952750
      axis 0.0 0.0 0.0 xyz
      dof rx ry rz
   end
   begin
      id 12
      name Spine
      direction 0.000000 1.000000 0.000000
      length 11.965764
      axis 0.0 0.0 0.0 xyz
      dof rx ry rz
   end
   begin
      id 13
      name Spine1
      direction 0.000000 1.000000 0.000000
      length 0.000000
      axis 0.0 0.0 0.0 xyz
      dof rx ry rz
   end
   begin
      id 14
      name Spine1_dum1
      direction 0.000000 1.000000 0.000000
      length 9.788721
      axis 0.0 0.0 0.0 xyz
   end
   begin
      id 15
      name Spine1_dum2
      direction 0.000000 1.000000 0.000000
      length 9.788721
      axis 0.0 0.0 0.0 xyz
   end
   begin
      id 16
      name Spine1_dum3
      direction 0.000000 1.000000 0.000000
      length 9.788721
      axis 0.0 0.0 0.0 xyz
   end
   begin
      id 17
      name Neck
      direction 0.000000 1.000000 0.000000
      length 7.029632
      axis 0.0 0.0 0.0 xyz
      dof rx ry rz
   end
   begin
      id 18
      name Head
      direction 0.000000 1.000000 0.000000
      length 4.527550
      axis 0.0 0.0 0.0 xyz
      dof rx ry rz
   end
   begin
      id 19
      name LeftShoulder
      direction 1.000000 -0.000004 0.000000
      length 9.320257
      axis 0.0 0.0 -90.0 xyz
      dof rx ry rz
   end
   begin
      id 20
      name LeftArm
      direction 1.000000 -0.000004 0.000000
      length 12.801352
      axis 0.0 0.0 -90.0 xyz
      dof rx ry rz
   end
   begin
      id 21
      name LeftForeArm
      direction 1.000000 -0.000004 0.000000
      length 11.278127
      axis 0.0 0.0 -90.0 xyz
      dof rx ry rz
   end
   begin
      id 22
      name LeftHand
      direction 0.000000 0.000000 0.000000
      length 0.000000
      axis 0.0 0.0 -90.0 xyz
      dof rx ry rz
   end
   begin
      id 23
      name LeftHand_dum1
      direction 0.000000 0.000000 0.000000
      length 0.000000
      axis 0.0 0.0 -90.0 xyz
   end
   begin
      id 24
      name LeftHand_dum2
      direction 1.000000 -0.000004 0.000000
      length 3.937000
      axis 0.0 0.0 -90.0 xyz
   end
   begin
      id 25
      name LeftHandThumb
      direction 0.000000 0.000000 1.000000
      length 3.937000
      axis 0.0 0.0 -90.0 xyz
      dof rx ry rz
   end
   begin
      id 26
      name RightShoulder
      direction -1.000000 -0.000004 0.000000
      length 9.320257
      axis 0.0 0.0 90.0 xyz
      dof rx ry rz
   end
   begin
      id 27
      name RightArm
      direction -1.000000 -0.000004 0.000000
      length 12.801352
      axis 0.0 0.0 90.0 xyz
      dof rx ry rz
   end
   begin
      id 28
      name RightForeArm
      direction -1.000000 -0.000004 0.000000
      length 11.278127
      axis 0.0 0.0 90.0 xyz
      dof rx ry rz
   end
   begin
      id 29
      name RightHand
      direction 0.000000 0.000000 0.000000
      length 0.000000
      axis 0.0 0.0 90.0 xyz
      dof rx ry rz
   end
   begin
      id 30
      name RightHand_dum1
      direction 0.000000 0.000000 0.000000
      length 0.000000
      axis 0.0 0.0 90.0 xyz
   end
   begin
      id 31
      name RightHand_dum2
      direction -1.000000 -0.000004 0.000000
      length 5.393690
      axis 0.0 0.0 90.0 xyz
   end
   begin
      id 32
      name RightHandThumb
      direction 0.000000 0.000000 1.000000
      length 3.937000
      axis 0.0 0.0 90.0 xyz
      dof rx ry rz
   end
:hierarchy
   begin
      root LeftUpLeg_dum RightUpLeg_dum Spine_dum
      LeftUpLeg_dum LeftUpLeg
      RightUpLeg_dum RightUpLeg
      Spine_dum Spine
      LeftUpLeg LeftLeg
      LeftLeg LeftFoot
      LeftFoot LeftToeBase
      RightUpLeg RightLeg
      RightLeg RightFoot
      RightFoot RightToeBase
      Spine Spine1
      Spine1 Spine1_dum1 Spine1_dum2 Spine1_dum3
      Spine1_dum1 Neck
      Spine1_dum2 LeftShoulder
      Spine1_dum3 RightShoulder
      Neck Head
      LeftShoulder LeftArm
      LeftArm LeftForeArm
      LeftForeArm LeftHand
      LeftHand LeftHand_dum1 LeftHand_dum2
      LeftHand_dum1 LeftHandThumb
      RightShoulder RightArm
      RightArm RightForeArm
      RightForeArm RightHand
      RightHand RightHand_dum1 RightHand_dum2
      RightHand_dum1 RightHandThumb
   end

# File created by Blade
# Date/Time:  Mon Nov 15 14:56:25 2010
# Frame Rate: 200.000 fps
#------------------------------------------------------
:FULLY-SPECIFIED
:DEGREES
96
root  5.020682 40.558071 -87.828916 -14.892046 2.543003 -0.088910
LeftUpLeg  10.829700 5.926998 1.207552
LeftLeg  12.998711 -0.000000 0.000000
LeftFoot  -9.027880 6.056060 2.439158
LeftToeBase  -22.724072 0.000000 -0.000000
RightUpLeg  17.663135 -3.309675 0.132283
RightLeg  0.433125 -0.000000 0.000000
RightFoot  -4.230917 -18.553008 -4.963942
RightToeBase  -35.543508 0.000000 -0.000000
Spine  12.518234 -1.264055 1.066751
Spine1  0.557614 0.508729 -4.187078
Neck  14.886061 -4.176207 -1.743076
Head  -19.248979 -6.770257 7.325466
LeftShoulder  -12.413919 6.759553 12.910900
LeftArm  13.433405 -47.575738 -41.228295
LeftForeArm  29.425291 -0.000000 0.000000
LeftHand  -11.216694 5.986217 -8.623668
LeftHandThumb  0.000000 -0.000000 0.000000
RightShoulder  -12.739825 -10.526901 -12.776071
RightArm  7.871175 34.842272 45.863773
RightForeArm  31.168006 -0.000000 0.000000
RightHand  -4.524598 0.370940 12.887918
RightHandThumb  0.000000 -0.000000 0.000000
97
root  5.032282 40.549298 -87.811835 -14.910637 2.442283 -0.120809
LeftUpLeg  10.598920 6.146300 1.303640
LeftLeg  13.587455 -0.000000 0.000000
LeftFoot  -9.314080 6.007810 2.314105
LeftToeBase  -22.656273 0.000000 -0.000000
RightUpLeg  17.590010 -3.236293 0.172878
RightLeg  0.627524 -0.000000 0.000000
RightFoot  -4.302920 -18.658077 -5.065599
RightToeBase  -35.728722 0.000000 -0.000000
Spine  12.577399 -1.237091 1.114452
Spine1  0.490816 0.549872 -4.201649
Neck  14.845220 -4.181246 -1.731085
Head  -19.178576 -6.752311 7.265417
LeftShoulder  -12.507253 6.792545 12.861441
LeftArm  13.291455 -47.768515 -41.293028
LeftForeArm  29.891580 -0.000000 0.000000
LeftHand  -11.103494 5.894868 -8.475003
LeftHandThumb  0.000000 -0.000000 0.000000
RightShoulder  -12.772879 -10.526974 -12.769560
RightArm  7.720035 34.882781 45.926509
RightForeArm  31.470547 -0.000000 0.000000
RightHand  -4.507610 0.320055 12.799648
RightHandThumb  0.000000 -0.000000 0.000000
98
root  5.044738 40.540507 -87.793673 -14.940842 2.316146 -0.167023
LeftUpLeg  10.382921 6.403390 1.428978
LeftLeg  14.178346 -0.000000 0.000000
LeftFoot  -9.553275 6.009725 2.171143
LeftToeBase  -22.608113 0.000000 -0.000000
RightUpLeg  17.528572 -3.129154 0.238611
RightLeg  0.819163 -0.000000 0.000000
RightFoot  -4.374273 -18.769397 -5.151322
RightToeBase  -35.801358 0.000000 -0.000000
Spine  12.633720 -1.205491 1.169865
Spine1  0.444103 0.599454 -4.196532
Neck  14.802017 -4.175748 -1.732522
Head  -19.099045 -6.756452 7.202923
LeftShoulder  -12.579718 6.813991 12.801074
LeftArm  13.043842 -47.942186 -41.293323
LeftForeArm  30.381543 -0.000000 0.000000
LeftHand  -10.971768 5.832918 -8.350854
LeftHandThumb  0.000000 -0.000000 0.000000
RightShoulder  -12.784789 -10.535056 -12.776026
RightArm  7.542994 34.919687 45.993493
RightForeArm  31.811394 -0.000000 0.000000
RightHand  -4.485652 0.328926 12.689194
RightHandThumb  0.000000 -0.000000 0.000000
99
root  5.057734 40.531454 -87.774647 -14.970942 2.189985 -0.213166
LeftUpLeg  10.167378 6.660946 1.553404
LeftLeg  14.769236 -0.000000 0.000000
LeftFoot  -9.792476 6.011046 2.028174
LeftToeBase  -22.559952 0.000000 -0.000000
RightUpLeg  17.467263 -3.021944 0.304221
RightLeg  1.010801 -0.000000 0.000000
RightFoot  -4.445496 -18.880819 -5.236955
RightToeBase  -35.873995 0.000000 -0.000000
Spine  12.690071 -1.173946 1.225308
Spine1  0.397394 0.649040 -4.191454
Neck  14.758814 -4.170251 -1.733964
Head  -19.019509 -6.760507 7.140423
LeftShoulder  -12.652209 6.835362 12.740677
LeftArm  12.795393 -48.115856 -41.292495
LeftForeArm  30.871506 -0.000000 0.000000
LeftHand  -10.840192 5.770684 -8.226861
LeftHandThumb  0.000000 -0.000000 0.000000
RightShoulder  -12.796698 -10.543139 -12.782490
RightArm  7.365926 34.956762 46.060367
RightForeArm  32.152242 -0.000000 0.000000
RightHand  -4.463712 0.337840 12.578744
RightHandThumb  0.000000 -0.000000 0.000000
100
root  5.070927 40.521857 -87.754758 -15.014838 2.041640 -0.270519
LeftUpLeg  9.970310 6.946504 1.702209
LeftLeg  15.367002 -0.000000 0.000000
LeftFoot  -10.008431 6.100726 1.868209
LeftToeBase  -22.522941 0.000000 -0.000000
RightUpLeg  17.423352 -2.883396 0.390328
RightLeg  1.197573 -0.000000 0.000000
RightFoot  -4.507747 -19.002974 -5.340343
RightToeBase  -35.939944 0.000000 -0.000000
Spine  12.746698 -1.142945 1.283972
Spine1  0.382167 0.701052 -4.180376
Neck  14.701857 -4.157818 -1.721566
Head  -18.968880 -6.726263 7.074177
LeftShoulder  -12.766898 6.865091 12.677657
LeftArm  12.564445 -48.247140 -41.312636
LeftForeArm  31.362185 -0.000000 0.000000
LeftHand  -10.695037 5.647005 -8.087771
LeftHandThumb  0.000000 -0.000000 0.000000
RightShoulder  -12.803301 -10.545334 -12.776750
RightArm  7.187286 34.965973 46.120304
RightForeArm  32.489828 -0.000000 0.000000
RightHand  -4.403677 0.325467 12.497475
RightHandThumb  0.000000 -0.000000 0.000000
